<svg xmlns="http://www.w3.org/2000/svg" xmlns:xlink="http://www.w3.org/1999/xlink" version="1.0" id="Layer_1" x="0px" y="0px" width="100px" height="100px" viewBox="0 0 100 100" enable-background="new 0 0 100 100" xml:space="preserve">
<path d="M74.35,5.832H61.272c-1.071,0-2.052,0.351-2.865,0.925c-20.839,0.596-37.61,17.72-37.61,38.699V100h5.129V45.456  c0-17.479,13.418-31.877,30.494-33.449c0.436,1.803,1.846,3.225,3.646,3.672c0.562,2.671,3.05,4.685,6.035,4.685h3.077  c2.957,0,5.426-1.976,6.018-4.609c2.356-0.404,4.152-2.452,4.152-4.924C79.349,8.071,77.109,5.832,74.35,5.832z M73.285,14.146  c0,2.363-2.021,4.278-4.516,4.278h-2.259c-2.494,0-4.517-1.916-4.517-4.278v-1.091h11.291V14.146z"/>
<path d="M69.543,30.041c0,0.92-0.747,1.667-1.667,1.667l0,0c-0.921,0-1.667-0.747-1.667-1.667v-3.667  c0-0.921,0.746-1.667,1.667-1.667l0,0c0.92,0,1.667,0.747,1.667,1.667V30.041z"/>
<path d="M59.372,28.692c-0.528,0.753-1.568,0.937-2.322,0.41l0,0c-0.754-0.529-0.938-1.568-0.409-2.322l2.104-3.004  c0.527-0.754,1.567-0.937,2.321-0.41l0,0c0.754,0.528,0.938,1.568,0.409,2.322L59.372,28.692z"/>
<path d="M78.756,26.779c0.528,0.754,0.345,1.794-0.409,2.322l0,0c-0.755,0.528-1.794,0.344-2.322-0.41l-2.104-3.003  c-0.527-0.754-0.344-1.794,0.41-2.322l0,0c0.755-0.528,1.793-0.345,2.322,0.409L78.756,26.779z"/>
</svg>