<svg xmlns="http://www.w3.org/2000/svg" xmlns:xlink="http://www.w3.org/1999/xlink" xml:space="preserve" width="100px" height="60px" style="shape-rendering:geometricPrecision; text-rendering:geometricPrecision; image-rendering:optimizeQuality; fill-rule:evenodd; clip-rule:evenodd" viewBox="0 0 9.47009 5.69171">
 <defs>
  <style type="text/css">
   
    .fil0 {fill:#0A0B0C}
   
  </style>
 </defs>
 <g id="Layer_x0020_1">
  <metadata id="CorelCorpID_0Corel-Layer"/>
  <path class="fil0" d="M0.688055 1.20829c2.05847,-0.396543 2.75982,0.779565 4.57002,-0.535316 0.0603361,0.0107264 0.13665,-0.0366486 0.190171,0.00268161 0.131734,0.0966496 0.249054,0.196204 0.378889,0.291848 0.0448052,-0.136874 -0.0263691,-0.254417 0.0178774,-0.32481 0.0374308,-0.0592188 -0.649843,-0.332072 -0.651519,-0.381347 -0.00346374,-0.101007 0.0462577,-0.333748 0.188718,-0.23911 0.16626,0.110505 0.556768,0.266373 0.813756,0.423247l0.119331 0.649954c0.032291,0.0147488 0.0642468,0.0367604 0.0967613,0.0623473l-0.143913 -0.741241 0.173969 -0.0235758 0.159444 0.925378 -0.00212294 0.000670402c0.0315089,0.0253635 0.0641351,0.0489393 0.0979904,0.0681575 0.62001,-0.34291 1.62125,0.0168718 1.85701,0.214528 0.0515092,0.0434644 -0.00916215,0.10827 -0.0430174,0.126818 -0.0652524,0.03609 -1.17946,-0.521125 -1.58248,-0.0359782 0.158662,0.354978 0.313524,0.675094 0.452856,0.95778 0.163578,-0.0579897 0.339558,-0.0893869 0.522913,-0.0893869 0.864371,0 1.56539,0.701017 1.56539,1.56539 0,0.864483 -0.701017,1.56539 -1.56539,1.56539 -0.864371,0 -1.56539,-0.700905 -1.56539,-1.56539 0,-0.543249 0.276764,-1.02192 0.697106,-1.3027 -0.151176,-0.275312 -0.320117,-0.584925 -0.504812,-0.919903 -0.341234,0.250842 -0.65163,0.661686 -0.645261,1.07789 0.0182126,1.14773 -0.239333,1.09443 -0.60459,0.506488 -0.629172,0.568836 -1.35153,0.617663 -2.16082,0.176427 -0.0165366,0.0101678 -0.0335201,0.0200003 -0.0506153,0.0298329 0.0392185,0.137209 0.0604479,0.282127 0.0604479,0.431962 0,0.864483 -0.701017,1.56539 -1.56539,1.56539 -0.864371,0 -1.56539,-0.700905 -1.56539,-1.56539 0,-0.864371 0.701017,-1.56539 1.56539,-1.56539 0.436655,0 0.831633,0.178885 1.11555,0.467382 0.268719,-0.338888 0.36481,-0.618445 0.666938,-0.880684l-0.0856997 -0.0849175 -2.10774 -0.0013408 0 -0.0585484 -0.162125 -0.000111734 -0.142572 -0.300116 0.283133 0.000335201 0.000335201 -0.0681575 1.27823 -0.00603361c-0.417772,-0.101342 -1.15533,-0.276429 -1.65489,-0.298887 -0.100448,-0.00435761 -0.0753084,-0.0388833 -0.0684927,-0.121566zm6.90715 1.87366c0.110728,0.22492 0.201903,0.415761 0.263691,0.570065 0.015084,-0.00145254 0.0303915,-0.00212294 0.0458108,-0.00212294 0.263133,0 0.476432,0.213411 0.476432,0.476432 0,0.263133 -0.213299,0.476432 -0.476432,0.476432 -0.263021,0 -0.476432,-0.213299 -0.476432,-0.476432 0,-0.136538 0.0574311,-0.259781 0.1495,-0.346709 -0.0862583,-0.141455 -0.190059,-0.322798 -0.309614,-0.536992 -0.274082,0.197768 -0.452409,0.520008 -0.452409,0.883701 0,0.60135 0.487717,1.08896 1.08896,1.08896 0.60135,0 1.08896,-0.487605 1.08896,-1.08896 0,-0.601238 -0.487605,-1.08896 -1.08896,-1.08896 -0.107488,0 -0.2114,0.0156427 -0.309502,0.0445817zm-4.96142 0.833309c-0.215534,0.103242 -0.433862,0.209947 -0.609954,0.340787 -0.0565372,0.200003 -0.240339,0.346709 -0.458443,0.346709 -0.263021,0 -0.476432,-0.213411 -0.476432,-0.476432 0,-0.263133 0.213411,-0.476432 0.476432,-0.476432 0.11341,0 0.217434,0.0395537 0.299223,0.1057 0.19978,-0.134416 0.359112,-0.260563 0.489952,-0.379559 -0.198439,-0.208607 -0.478555,-0.338665 -0.789174,-0.338665 -0.601238,0 -1.08896,0.487717 -1.08896,1.08896 0,0.60135 0.487717,1.08896 1.08896,1.08896 0.60135,0 1.08907,-0.487605 1.08907,-1.08896 0,-0.0721799 -0.00726268,-0.142796 -0.0206707,-0.211065zm2.59043 -2.48842l0.271848 -0.066258c-0.0157544,0.221679 0.0557551,0.420342 0.158997,0.610848l-0.279222 -0.0388833c-0.112739,-0.131846 -0.152516,-0.306597 -0.151622,-0.505706zm-2.20015 1.64863l0.421347 -0.685933 0.156986 0.399448c-0.178885,0.0603361 -0.163355,0.18112 -0.578333,0.286485z"/>
 </g>
</svg>