<?xml version="1.0" encoding="utf-8"?>
<!-- Generator: Adobe Illustrator 15.1.0, SVG Export Plug-In . SVG Version: 6.00 Build 0)  -->
<!DOCTYPE svg PUBLIC "-//W3C//DTD SVG 1.1//EN" "http://www.w3.org/Graphics/SVG/1.1/DTD/svg11.dtd">
<svg version="1.1" id="Layer_1" xmlns="http://www.w3.org/2000/svg" xmlns:xlink="http://www.w3.org/1999/xlink" x="0px" y="0px"
	 width="100px" height="93px" viewBox="0 0 100 93" enable-background="new 0 0 100 93" xml:space="preserve">
<g>
	<path d="M88.457,55.363c2.458,8.95,5.836,12.124,10.088,20.784C102.67,84.551,96.557,93,88.457,93
		c-8.096,0-14.21-8.447-10.082-16.853C82.622,67.487,86.003,64.314,88.457,55.363z"/>
</g>
<path d="M66.042,18.012H38.024V8.005h13.009c2.21,0,4.002-1.792,4.002-4.002C55.035,1.792,53.243,0,51.033,0H15.01
	c-2.211,0-4.003,1.792-4.003,4.003c0,2.21,1.792,4.002,4.003,4.002h13.009v10.007H0v20.013h66.042c4.045,0,7.734,1.52,10.555,4.003
	H100C95.044,28.052,81.696,18.012,66.042,18.012z"/>
</svg>
