<svg xmlns="http://www.w3.org/2000/svg" xmlns:xlink="http://www.w3.org/1999/xlink" version="1.1" id="Layer_1" x="0px" y="0px" width="100px" height="100px" viewBox="0 0 100 100" enable-background="new 0 0 100 100" xml:space="preserve">
<g>
	<path fill="#000000" d="M30.575,3.921c0.214,3.022,0.614,6.034,1.213,9.014c15.994-6.589,33.053-7.128,48.575-2.655   C71.949,3.836,61.43,0,50,0C43.113,0,36.549,1.396,30.575,3.921z"/>
	<path fill="#000000" d="M32.465,15.98c1.308,5.295,3.238,10.464,5.782,15.397c18.501-6.417,38.4-5.29,56.064,3.204   c1.308,0.628,2.583,1.303,3.843,2c-2.226-8.02-6.396-15.225-11.978-21.079C69.471,8.846,50.257,8.496,32.465,15.98z"/>
	<path fill="#000000" d="M17.529,19.496c1.404,18.497,9.819,35.363,23.705,47.619c3.013-5.168,5.387-10.747,7.041-16.652   C35.911,37.788,29.032,21.74,27.613,5.303c-3.706,1.862-7.146,4.17-10.255,6.855C17.294,14.589,17.343,17.037,17.529,19.496z"/>
	<path fill="#000000" d="M19.892,89.899c2.497-1.691,4.881-3.51,7.116-5.478C13.328,73.906,4.328,59.461,0.406,43.838   c-0.248,2.016-0.391,4.064-0.391,6.146C0.016,66.296,7.825,80.771,19.892,89.899z"/>
	<path fill="#000000" d="M71.982,49.202c-4.051,21.349-16.99,38.801-34.251,49.273C41.658,99.468,45.767,100,50,100   c4.193,0,8.262-0.522,12.151-1.492c0.045-0.035,0.091-0.067,0.135-0.103c14.521-11.616,23.719-28.101,26.005-46.501   C83.026,50.381,77.556,49.463,71.982,49.202z"/>
	<path fill="#000000" d="M68.853,49.131c-5.824-0.013-11.736,0.699-17.628,2.201c-4.648,16.559-14.692,30.693-28.642,40.461   c3.435,2.26,7.162,4.104,11.115,5.469C51.313,87.509,64.669,70.351,68.853,49.131z"/>
	<path fill="#000000" d="M99.984,49.985c0-3.183-0.311-6.292-0.877-9.31c-1.976-1.198-4.019-2.308-6.129-3.322   c-16.769-8.062-35.639-9.191-53.231-3.229c2.907,5.071,6.492,9.853,10.756,14.219c17.136-4.357,34.453-2.303,49.383,4.663   C99.945,52.005,99.984,51,99.984,49.985z"/>
	<path fill="#000000" d="M91.267,52.844C89.084,69.4,81.529,84.441,69.673,95.98c15.999-6.853,27.671-21.813,29.907-39.726   C96.887,54.948,94.111,53.805,91.267,52.844z"/>
	<path fill="#000000" d="M29.304,82.31c3.917-3.768,7.359-7.973,10.296-12.527C24.867,56.964,15.94,39.21,14.463,19.729   c-0.118-1.563-0.17-3.12-0.191-4.674C8.582,20.873,4.306,28.073,1.985,36.106C4.603,53.879,13.921,70.665,29.304,82.31z"/>
</g>
</svg>