<svg xmlns="http://www.w3.org/2000/svg" xmlns:xlink="http://www.w3.org/1999/xlink" version="1.1" id="Layer_1" x="0px" y="0px" width="100px" height="100px" viewBox="0 0 100 100" enable-background="new 0 0 100 100" xml:space="preserve">
<g>
	<path fill="#000000" d="M0,99.856c0,0,20.453-40.576,38.681-42.068c19.704-1.612,33.686,42.068,33.686,42.068H0L0,99.856z"/>
	<path fill="#000000" d="M52.643,61c0,0,7.532,7.364,12.356,16.356c5.165,9.635,8.261,18.966,8.261,18.966s1.366-4.255,5.415-14.089   c4.05-9.834,6.855-15.421,6.855-15.421s-8.035,0.608-16.272-0.465C62.138,65.42,52.643,61,52.643,61L52.643,61z"/>
	<path fill="#000000" d="M74.009,99.856l5.58-14.66c0,0,2.651,4.006,4.189,6.658c1.535,2.653,4.087,8.002,4.087,8.002H74.009   L74.009,99.856z"/>
	<path fill="#000000" d="M89.329,99.856c0,0-1.224-3.534-4.016-9.958c-2.793-6.421-3.998-8.935-3.998-8.935l1.764-4.606L100,99.856   H89.329L89.329,99.856z"/>
</g>
</svg>