<?xml version="1.0" encoding="utf-8"?>
<!-- Generator: Adobe Illustrator 14.0.0, SVG Export Plug-In . SVG Version: 6.00 Build 43363)  -->
<!DOCTYPE svg PUBLIC "-//W3C//DTD SVG 1.0//EN" "http://www.w3.org/TR/2001/REC-SVG-20010904/DTD/svg10.dtd">
<svg version="1.0" id="Layer_1" xmlns="http://www.w3.org/2000/svg" xmlns:xlink="http://www.w3.org/1999/xlink" x="0px" y="0px"
	 width="100px" height="58.138px" viewBox="0 0 100 58.138" enable-background="new 0 0 100 58.138" xml:space="preserve">
<path d="M12.343,13.094C4.861,18.53,0,24.599,0,29.069s4.861,10.538,12.343,15.974V13.094z"/>
<path d="M87.656,13.094v31.949C95.139,39.606,100,33.539,100,29.069S95.139,18.53,87.656,13.094z"/>
<path d="M50,0C39.436,0,28.577,3.571,19.689,8.452v41.234c8.888,4.881,19.747,8.452,30.311,8.452
	c10.564,0,21.423-3.571,30.312-8.452V8.452C71.423,3.571,60.564,0,50,0z M66.632,34.333h-3.093v-3.718h-4.833v3.718h-3.093v-3.718
	H50.78v3.718h-3.093v-3.718h-4.833v3.718H39.76v-3.718h-4.833v3.718h-3.093V23.805h3.093v3.717h4.833v-3.717h3.093v3.717h4.833
	v-3.717h3.093v3.717h4.833v-3.717h3.093v3.717h4.833v-3.717h3.093V34.333z"/>
</svg>
